<svg width="199" height="200" viewBox="0 0 199 200" xmlns="http://www.w3.org/2000/svg"><g fill="none" fill-rule="evenodd"><path fill="#DA161F" d="M0 0h198.96v200H0z"/><path d="M42.34 6.87v12.78c-1 .06-1.82.25-2.83.32l-2.2-8.1c-.63-2.15-1.07-2.72-3.78-2.72H29v38.27h5.98v2.28H14.52v-2.28h5.92V9.15h-4.41c-2.52 0-3.27.38-3.9 2.72l-2.2 8.1c-1.01-.07-1.83-.26-2.84-.32l.45-12.78h34.8" fill="#FFF"/><path fill="#FFF" d="M82.63 49.7H64.12v-2.28h4.28V29.96H55.5v17.46h4.34v2.28H42.09v-2.28h4.85V9.15h-5.1V6.87h18v2.28H55.5v17.52h12.9V9.15h-4.28V6.87h17.19v2.28h-4.35v38.27h5.67v2.28"/><path d="M113.41 36.48l-.44 13.22H81.94v-2.28h5.41V9.15h-3.97V6.87h28.2v12.65c-1 .13-1.82.13-2.77.26l-2.2-7.53c-.69-2.21-1.7-3.1-4.03-3.1h-6.67v17.33h10.89v3.55H95.91c0 .69-.06 5.18-.06 7.65-.07 3.92-.07 8.29-.07 9.74h8.56c2.27 0 3.66-1.39 4.54-4.24l1.76-7.21 2.77.51M40.64 95.41l-3.9.31c-2.58.89-7.11 1.9-9.63 1.9-10.38 0-18.57-6.96-18.57-21.45 0-11.19 7.11-22.83 18.82-22.83 6.99 0 10.95 1.64 12.21 2.46v11.39l-3.02.7c-1.89-7.22-3.77-11.77-9.06-11.77-7.24 0-9.76 8.92-9.76 18.85 0 15.12 3.97 19.61 9.88 19.61 1.7 0 3.28-.44 4.73-.88V81.93h-4.35v-2.28h12.65v15.76m2.33-.83h4.53V56.31h-4.34v-2.28h17.63v2.28h-4.72c0 33.65 0 37.89-.26 38.27h6.23c2.46 0 3.66-1.07 4.73-4.3l2.39-7.34c.94.13 1.7.13 2.64.26l-.94 13.66H42.97v-2.28m29.14-18.6c0-12.08 5.36-22.64 17.57-22.64 11.01 0 17.62 8.03 17.62 21.63 0 12.09-5.41 22.65-17.62 22.65-10.33 0-17.57-7.15-17.57-21.64zm26.13-.44c0-16.95-5.16-19.23-8.56-19.23-5.04 0-8.5 4.62-8.5 19.1 0 15.88 4.72 19.24 8.5 19.24 4.34 0 8.56-3.86 8.56-19.11zm28.45 21.32h-17.94v-2.28h4.47V56.31h-4.47v-2.28h17.56c8.94 0 13.66 4.18 13.66 11.07 0 3.55-3.46 8.1-8.18 9.49v.38c5.28 1.2 9.12 5.51 9.12 10.63 0 6.64-5.28 11.26-14.22 11.26zm-4.85-23.34h5.29c3.02 0 4.72-3.61 4.72-7.78 0-6.9-2.45-9.43-5.6-9.43h-4.41v17.21zm4.97 2.65h-4.97v16.96c0 .89 0 1.45.63 1.45h4.28c2.96 0 5.42-1.64 5.42-9.04 0-5.38-1.26-9.37-5.36-9.37zm46.46 7.47l-.44 13.22h-31.04v-2.28h5.42V56.31h-3.97v-2.28h28.2v12.65c-1 .13-1.82.13-2.77.26l-2.2-7.53c-.69-2.22-1.7-3.1-4.03-3.1h-6.67v17.33h10.89v3.55h-10.89c0 .69-.07 5.18-.07 7.65-.06 3.92-.06 8.29-.06 9.74h8.56c2.27 0 3.65-1.39 4.53-4.24l1.77-7.21 2.77.51M17.1 127.89l-2.2 7.71a15.16 15.16 0 0 0-.31 3.04c0 2.72 1.13 2.78 4.84 3.1h.38v2.28H6.28v-2.22h.06c2.77 0 4.22-2.27 5.1-4.99 0 0 9.31-29.17 10.89-35.62h5.85l12.34 40.55h3.65v2.28h-17.5v-2.28h4.66l-3.97-13.85H17.1zm5.1-18.03l-4.47 15.75h8.94l-4.47-15.75z" fill="#FFF"/><path d="M78.41 103.47c-3.08.06-4.78.76-4.78 3.54v37.01h-3.34c-6.61-10.95-13.03-21.95-19.57-32.96v26.5c0 2.66.31 4.12 5.53 4.24v2.22h-12.4v-2.28c1.96-.06 3.84-.57 3.84-4.24v-30.93c-1.07-1.39-2.39-2.78-4.21-3.36v-2.02h11.14c5.35 9.11 10.7 18.09 16.11 27.14v-21.32c0-2.34-.75-3.54-5.22-3.54v-2.28h12.9v2.28" fill="#FFF"/><path d="M95.15 144.02H78.03v-2.28h4.72v-38.27h-5.03v-2.28h16.87c12.02 0 20.27 8.67 20.27 20.88 0 12.02-7.24 21.95-19.71 21.95zm-3.77-40.55v36.37c0 1.2.44 1.9 1.44 1.9 8.57 0 12.41-5.31 12.41-19.17 0-13.41-4.85-19.1-13.85-19.1zM36.8 191.18v-2.28h4.16l-1.64-32.58c-3.59 9.62-7.05 18.91-10.57 28.59l-1.39.64c-3.58-10.25-7.42-20.69-11.01-30.94v-.32c-.25 7.53-.51 12.34-.76 19.74-.19 5.32-.38 10.88-.38 11.64 0 1.33.82 3.17 6.17 3.29v2.22H6.46v-2.09c3.78-.19 5.23-1.65 5.36-3.42.56-7.97 1.38-22.07 1.76-29.67v-.44c0-4.24-.32-4.93-4.66-4.93v-2.28h14.04c2.51 7.53 5.28 15.25 7.93 22.77l8.06-22.77h13.28v2.28h-4.85l2.27 38.27h4.46v2.28H36.8" fill="#FFF"/><path d="M63.12 175.05l-2.21 7.71a15.16 15.16 0 0 0-.31 3.04c0 2.72 1.13 2.78 4.84 3.1h.38v2.28H52.29v-2.22h.06c2.77 0 4.22-2.28 5.1-5 0 0 9.32-29.16 10.89-35.61h5.85l12.34 40.55h3.65v2.28h-17.5v-2.28h4.66l-3.96-13.85H63.12zm5.09-18.03l-4.47 15.75h8.94l-4.47-15.75z" fill="#FFF"/><path fill="#FFF" d="M102.39 188.9v-38.27h3.91v-2.28H89.24v2.28h3.96v38.27h-3.84v2.28h16.94v-2.28h-3.91m32.17-11.64l-2.39 7.34c-1.08 3.22-2.27 4.3-4.73 4.3h-6.23c.25-.38.25-4.62.25-38.27h4.73v-2.28h-17.63v2.28h4.34v38.27h-4.34v2.28h27.7l.94-13.67c-.94-.12-1.7-.12-2.64-.25m8.77-5.69s-.75-.22-.86.6c-.05.34.08.64.48.94.08.06.22.11.32.11 1.52.12 3.3-2.43 4.44-4.34.52-.87.72-1.16.96-1.16.11 0 .53-.04 1 .76.63 1.05 3.76 4.07 7.75 3.24.16-.38-.55-.68-1.02-.91 0 0-1.64-1.28.47-1.88 2.12-.45 3.13.3 4.93-1.13.08-.45-.94-.68-.94-.68s-1.25-.75 2.43-1.81c1.8-.45 1.8-.75 1.49-.98-.32-.22-1.18-.52.07-1.35 1.34-.83 2.2-1.96 2.12-2.34-.24-.3-.78-.22-1.49.15-.78.38-1.8.15-2.34-.68-.55-.82-1.1-.67-1.8-.15-.71.53-2.12 1.28-2.75 0-.39-1.43-.23-1.05.86-3.01 1.1-1.96 1.33-3.54 1.33-3.84 0-.3-.15-.46-1.17 0-.86.22-.94-4-1.02-4.6 0 0 0-1.13-.7-.15-.55.68-2.74 2.71-3.45 2.94-.7.22-1.71-.38-1.56-1.21 0-.83-.55-.53-.79 0-.23.53-1.87 5.65-2.26 5.96-.4.3-.71 1.05-1.41-.23-.71-1.28-1.93-4.32-3.08-2.82-.32-.3-2.32-2.91-3.97-2.98-.23.3.16 1.05.47 1.28.32.38.32 1.43 0 2.18-.31.76-.31 1.74.08 2.64.24.45-.08 1.21-1.41 1.36-1.33.15-1.1.52-.55 1.2.55.68 2.59 2.34 3.06 2.94.46.61-.08 1.36-1.02 1.43-.94.08-1.8-.22-2.04.3-.07.53.71.31 1.02.76 0 0 1.72 3.01 3.99 2.86 2.27-.15 2.38.15 2.12 1.06-.23.79-2.06 3.35-3.76 3.54"/></g></svg>